<svg width="13" height="22" viewBox="0 0 13 22" fill="none" xmlns="http://www.w3.org/2000/svg">
<path d="M-7.90326e-08 0.808054L12.78 0.808054L12.78 9.19605L11.664 9.19605L11.664 2.06805L6.966 2.06805L6.966 8.08005L5.922 8.08005L5.922 2.06805L-1.34109e-07 2.06805L-7.90326e-08 0.808054ZM3.294 21.0197C2.658 21.0197 2.088 20.8577 1.584 20.5337C1.092 20.2097 0.701999 19.7717 0.413999 19.2197C0.137999 18.6797 -8.34261e-07 18.0857 -8.05936e-07 17.4377L-5.42356e-07 11.4077L12.78 11.4077L12.78 17.5637C12.78 18.1637 12.618 18.6797 12.294 19.1117C11.982 19.5557 11.574 19.8917 11.07 20.1197C10.578 20.3597 10.062 20.4797 9.522 20.4797C8.886 20.4797 8.298 20.3177 7.758 19.9937C7.218 19.6697 6.816 19.2197 6.552 18.6437C6.336 19.3757 5.934 19.9517 5.346 20.3717C4.758 20.8037 4.074 21.0197 3.294 21.0197ZM3.51 19.7597C3.942 19.7597 4.338 19.6637 4.698 19.4717C5.07 19.2797 5.37 19.0157 5.598 18.6797C5.826 18.3557 5.94 17.9837 5.94 17.5637L5.94 12.6677L1.098 12.6677L1.098 17.4377C1.098 17.8697 1.212 18.2597 1.44 18.6077C1.668 18.9557 1.962 19.2317 2.322 19.4357C2.694 19.6517 3.09 19.7597 3.51 19.7597ZM11.682 12.6677L6.966 12.6677L6.966 17.0597C6.966 17.4797 7.074 17.8517 7.29 18.1757C7.518 18.4997 7.812 18.7577 8.172 18.9497C8.532 19.1417 8.916 19.2377 9.324 19.2377C9.756 19.2377 10.146 19.1477 10.494 18.9677C10.854 18.7877 11.142 18.5417 11.358 18.2297C11.574 17.9177 11.682 17.5637 11.682 17.1677L11.682 12.6677Z" fill="#060F5E"/>
</svg>
