<svg width="14" height="85" viewBox="0 0 14 85" fill="none" xmlns="http://www.w3.org/2000/svg">
<path d="M13.78 1.91521L6.904 6.09121L13.78 10.3032L13.78 11.6712L5.752 6.72121L1 6.72121L1 5.46121L5.788 5.46121L13.78 0.529211L13.78 1.91521ZM0.909999 17.8721C0.909999 16.9721 1.09 16.1561 1.45 15.4241C1.81 14.6921 2.296 14.0621 2.908 13.5341C3.532 13.0061 4.228 12.5981 4.996 12.3101C5.776 12.0221 6.574 11.8781 7.39 11.8781C8.242 11.8781 9.052 12.0281 9.82 12.3281C10.6 12.6281 11.29 13.0481 11.89 13.5881C12.502 14.1401 12.982 14.7821 13.33 15.5141C13.69 16.2461 13.87 17.0381 13.87 17.8901C13.87 18.7901 13.684 19.6061 13.312 20.3381C12.94 21.0701 12.442 21.6941 11.818 22.2101C11.194 22.7381 10.498 23.1461 9.73 23.4341C8.962 23.7221 8.176 23.8661 7.372 23.8661C6.52 23.8661 5.704 23.7161 4.924 23.4161C4.156 23.1161 3.466 22.6961 2.854 22.1561C2.254 21.6161 1.78 20.9801 1.432 20.2481C1.084 19.5161 0.909999 18.7241 0.909999 17.8721ZM7.39 13.1381C6.694 13.1381 6.022 13.2521 5.374 13.4801C4.738 13.7081 4.168 14.0321 3.664 14.4521C3.172 14.8721 2.776 15.3701 2.476 15.9461C2.188 16.5341 2.044 17.1761 2.044 17.8721C2.044 18.6041 2.194 19.2581 2.494 19.8341C2.806 20.4221 3.214 20.9201 3.718 21.3281C4.234 21.7481 4.81 22.0661 5.446 22.2821C6.082 22.4981 6.73 22.6061 7.39 22.6061C8.086 22.6061 8.752 22.4921 9.388 22.2641C10.024 22.0361 10.594 21.7061 11.098 21.2741C11.602 20.8541 11.998 20.3561 12.286 19.7801C12.574 19.2041 12.718 18.5681 12.718 17.8721C12.718 17.1521 12.568 16.4981 12.268 15.9101C11.968 15.3341 11.56 14.8361 11.044 14.4161C10.54 14.0081 9.97 13.6901 9.334 13.4621C8.698 13.2461 8.05 13.1381 7.39 13.1381ZM0.909999 31.4436C0.909999 30.4356 1.09 29.5836 1.45 28.8876C1.81 28.1916 2.29 27.6396 2.89 27.2316C3.502 26.8236 4.192 26.5236 4.96 26.3316C5.728 26.1516 6.52 26.0616 7.336 26.0616L13.78 26.0616L13.78 27.3036L7.336 27.3036C6.676 27.3036 6.028 27.3696 5.392 27.5016C4.756 27.6456 4.186 27.8736 3.682 28.1856C3.178 28.4976 2.776 28.9176 2.476 29.4456C2.188 29.9736 2.044 30.6336 2.044 31.4256C2.044 32.2416 2.194 32.9136 2.494 33.4416C2.806 33.9816 3.214 34.4016 3.718 34.7016C4.222 35.0136 4.786 35.2356 5.41 35.3676C6.046 35.4996 6.688 35.5656 7.336 35.5656L13.78 35.5656L13.78 36.8256L7.336 36.8256C6.484 36.8256 5.668 36.7296 4.888 36.5376C4.108 36.3456 3.424 36.0336 2.836 35.6016C2.248 35.1816 1.78 34.6296 1.432 33.9456C1.084 33.2616 0.909999 32.4276 0.909999 31.4436ZM12.664 48.9015L12.664 44.3475L0.999998 44.3475L0.999998 43.0875L12.664 43.0875L12.664 38.5335L13.78 38.5335L13.78 48.9015L12.664 48.9015ZM0.909998 56.0179C0.909998 55.0099 1.09 54.1579 1.45 53.4619C1.81 52.7659 2.29 52.2139 2.89 51.8059C3.502 51.3979 4.192 51.0979 4.96 50.9059C5.728 50.7259 6.52 50.6359 7.336 50.6359L13.78 50.6359L13.78 51.8779L7.336 51.8779C6.676 51.8779 6.028 51.9439 5.392 52.0759C4.756 52.2199 4.186 52.4479 3.682 52.7599C3.178 53.0719 2.776 53.4919 2.476 54.0199C2.188 54.5479 2.044 55.2079 2.044 55.9999C2.044 56.8159 2.194 57.4879 2.494 58.0159C2.806 58.5559 3.214 58.9759 3.718 59.2759C4.222 59.5879 4.786 59.8099 5.41 59.9419C6.046 60.0739 6.688 60.1399 7.336 60.1399L13.78 60.1399L13.78 61.3999L7.336 61.3999C6.484 61.3999 5.668 61.3039 4.888 61.1119C4.108 60.9199 3.424 60.6079 2.836 60.1759C2.248 59.7559 1.78 59.2039 1.432 58.5199C1.084 57.8359 0.909998 57.0019 0.909998 56.0179ZM4.294 74.0158C3.658 74.0158 3.088 73.8538 2.584 73.5298C2.092 73.2058 1.702 72.7678 1.414 72.2158C1.138 71.6758 0.999997 71.0818 0.999997 70.4338L0.999997 64.4038L13.78 64.4038L13.78 70.5598C13.78 71.1598 13.618 71.6758 13.294 72.1078C12.982 72.5518 12.574 72.8878 12.07 73.1158C11.578 73.3558 11.062 73.4758 10.522 73.4758C9.886 73.4758 9.298 73.3138 8.758 72.9898C8.218 72.6658 7.816 72.2158 7.552 71.6398C7.336 72.3718 6.934 72.9478 6.346 73.3678C5.758 73.7998 5.074 74.0158 4.294 74.0158ZM4.51 72.7558C4.942 72.7558 5.338 72.6598 5.698 72.4678C6.07 72.2758 6.37 72.0118 6.598 71.6758C6.826 71.3518 6.94 70.9798 6.94 70.5598L6.94 65.6638L2.098 65.6638L2.098 70.4338C2.098 70.8658 2.212 71.2558 2.44 71.6038C2.668 71.9518 2.962 72.2278 3.322 72.4318C3.694 72.6478 4.09 72.7558 4.51 72.7558ZM12.682 65.6638L7.966 65.6638L7.966 70.0558C7.966 70.4758 8.074 70.8478 8.29 71.1718C8.518 71.4958 8.812 71.7538 9.172 71.9458C9.532 72.1378 9.916 72.2338 10.324 72.2338C10.756 72.2338 11.146 72.1438 11.494 71.9638C11.854 71.7838 12.142 71.5378 12.358 71.2258C12.574 70.9138 12.682 70.5598 12.682 70.1638L12.682 65.6638ZM2.116 84.978L0.999996 84.978L0.999997 76.392L13.78 76.392L13.78 84.816L12.664 84.816L12.664 77.652L8.056 77.652L8.056 83.898L6.994 83.898L6.994 77.652L2.116 77.652L2.116 84.978Z" fill="#060F5E"/>
</svg>
