<svg width="14" height="126" viewBox="0 0 14 126" fill="none" xmlns="http://www.w3.org/2000/svg">
<path d="M11.386 8.51829C11.59 8.33829 11.77 8.12829 11.926 7.88829C12.094 7.64829 12.238 7.37829 12.358 7.07829C12.478 6.77829 12.574 6.45429 12.646 6.10629C12.718 5.77029 12.754 5.41029 12.754 5.02629C12.754 3.91029 12.538 3.08829 12.106 2.56029C11.686 2.04429 11.11 1.78629 10.378 1.78629C9.874 1.78629 9.478 1.90629 9.19 2.14629C8.902 2.39829 8.668 2.78829 8.488 3.31629C8.308 3.84429 8.122 4.51629 7.93 5.33229C7.738 6.24429 7.51 7.03029 7.246 7.69029C6.982 8.35029 6.622 8.86029 6.166 9.22029C5.722 9.58029 5.116 9.76029 4.348 9.76029C3.76 9.76029 3.25 9.64629 2.818 9.41829C2.386 9.19029 2.026 8.87229 1.738 8.46429C1.45 8.05629 1.234 7.57029 1.09 7.00629C0.958 6.44229 0.892 5.82429 0.892 5.15229C0.892 4.49229 0.958 3.85629 1.09 3.24429C1.234 2.64429 1.438 2.07429 1.702 1.53429C1.978 0.994288 2.326 0.490288 2.746 0.0222884L3.772 0.652288C3.532 0.880288 3.304 1.15029 3.088 1.46229C2.884 1.78629 2.698 2.14029 2.53 2.52429C2.362 2.92029 2.23 3.34029 2.134 3.78429C2.05 4.24029 2.008 4.70829 2.008 5.18829C2.008 6.20829 2.194 7.00029 2.566 7.56429C2.938 8.14029 3.49 8.42829 4.222 8.42829C4.75 8.42829 5.17 8.28429 5.482 7.99629C5.806 7.70829 6.07 7.27629 6.274 6.70029C6.478 6.12429 6.676 5.41629 6.868 4.57629C7.072 3.68829 7.3 2.93829 7.552 2.32629C7.804 1.71429 8.134 1.25229 8.542 0.940289C8.962 0.640289 9.514 0.490289 10.198 0.490289C10.99 0.490289 11.656 0.682289 12.196 1.06629C12.748 1.46229 13.162 2.00229 13.438 2.68629C13.726 3.37029 13.87 4.15629 13.87 5.04429C13.87 5.60829 13.81 6.13029 13.69 6.61029C13.582 7.10229 13.42 7.55229 13.204 7.96029C12.988 8.38029 12.718 8.77029 12.394 9.13029L11.386 8.51829ZM0.909999 17.1299C0.909999 16.2299 1.09 15.4139 1.45 14.6819C1.81 13.9499 2.296 13.3199 2.908 12.7919C3.532 12.2639 4.228 11.8559 4.996 11.5679C5.776 11.2799 6.574 11.1359 7.39 11.1359C8.242 11.1359 9.052 11.2859 9.82 11.5859C10.6 11.8859 11.29 12.3059 11.89 12.8459C12.502 13.3979 12.982 14.0399 13.33 14.7719C13.69 15.5039 13.87 16.2959 13.87 17.1479C13.87 18.0479 13.684 18.8639 13.312 19.5959C12.94 20.3279 12.442 20.9519 11.818 21.4679C11.194 21.9959 10.498 22.4039 9.73 22.6919C8.962 22.9799 8.176 23.1239 7.372 23.1239C6.52 23.1239 5.704 22.9739 4.924 22.6739C4.156 22.3739 3.466 21.9539 2.854 21.4139C2.254 20.8739 1.78 20.2379 1.432 19.5059C1.084 18.7739 0.909999 17.9819 0.909999 17.1299ZM7.39 12.3959C6.694 12.3959 6.022 12.5099 5.374 12.7379C4.738 12.9659 4.168 13.2899 3.664 13.7099C3.172 14.1299 2.776 14.6279 2.476 15.2039C2.188 15.7919 2.044 16.4339 2.044 17.1299C2.044 17.8619 2.194 18.5159 2.494 19.0919C2.806 19.6799 3.214 20.1779 3.718 20.5859C4.234 21.0059 4.81 21.3239 5.446 21.5399C6.082 21.7559 6.73 21.8639 7.39 21.8639C8.086 21.8639 8.752 21.7499 9.388 21.5219C10.024 21.2939 10.594 20.9639 11.098 20.5319C11.602 20.1119 11.998 19.6139 12.286 19.0379C12.574 18.4619 12.718 17.8259 12.718 17.1299C12.718 16.4099 12.568 15.7559 12.268 15.1679C11.968 14.5919 11.56 14.0939 11.044 13.6739C10.54 13.2659 9.97 12.9479 9.334 12.7199C8.698 12.5039 8.05 12.3959 7.39 12.3959ZM0.909999 30.7015C0.909999 29.6935 1.09 28.8415 1.45 28.1455C1.81 27.4495 2.29 26.8975 2.89 26.4895C3.502 26.0815 4.192 25.7815 4.96 25.5895C5.728 25.4095 6.52 25.3195 7.336 25.3195L13.78 25.3195L13.78 26.5615L7.336 26.5615C6.676 26.5615 6.028 26.6275 5.392 26.7595C4.756 26.9035 4.186 27.1315 3.682 27.4435C3.178 27.7555 2.776 28.1755 2.476 28.7035C2.188 29.2315 2.044 29.8915 2.044 30.6835C2.044 31.4995 2.194 32.1715 2.494 32.6995C2.806 33.2395 3.214 33.6595 3.718 33.9595C4.222 34.2715 4.786 34.4935 5.41 34.6255C6.046 34.7575 6.688 34.8235 7.336 34.8235L13.78 34.8235L13.78 36.0835L7.336 36.0835C6.484 36.0835 5.668 35.9875 4.888 35.7955C4.108 35.6035 3.424 35.2915 2.836 34.8595C2.248 34.4395 1.78 33.8875 1.432 33.2035C1.084 32.5195 0.909999 31.6855 0.909999 30.7015ZM11.458 40.3474L0.999998 40.3474L0.999998 39.0874L13.78 39.0874L13.78 40.1314L3.124 48.5194L13.762 48.5194L13.762 49.7794L0.999998 49.7794L0.999998 48.6094L11.458 40.3474ZM0.999998 52.9916L13.78 52.9916L13.78 57.3296C13.78 58.6856 13.492 59.8136 12.916 60.7136C12.352 61.6256 11.584 62.3096 10.612 62.7656C9.652 63.2216 8.584 63.4496 7.408 63.4496C6.112 63.4496 4.984 63.1976 4.024 62.6936C3.064 62.2016 2.32 61.4936 1.792 60.5696C1.264 59.6576 0.999997 58.5776 0.999997 57.3296L0.999998 52.9916ZM7.408 62.1896C8.428 62.1896 9.334 61.9976 10.126 61.6136C10.918 61.2416 11.536 60.6956 11.98 59.9756C12.436 59.2556 12.664 58.3736 12.664 57.3296L12.664 54.2516L2.116 54.2516L2.116 57.3296C2.116 58.3856 2.35 59.2736 2.818 59.9936C3.286 60.7136 3.916 61.2596 4.708 61.6316C5.512 62.0036 6.412 62.1896 7.408 62.1896ZM7.48 65.0128C8.26 65.0128 9.022 65.1448 9.766 65.4088C10.522 65.6848 11.206 66.0808 11.818 66.5968C12.442 67.1128 12.934 67.7488 13.294 68.5048C13.666 69.2608 13.852 70.1188 13.852 71.0788C13.852 72.2188 13.588 73.1908 13.06 73.9948C12.544 74.8108 11.878 75.4108 11.062 75.7948L10.45 74.8048C11.014 74.5288 11.458 74.1808 11.782 73.7608C12.118 73.3408 12.358 72.8908 12.502 72.4108C12.646 71.9428 12.718 71.4748 12.718 71.0068C12.718 70.2388 12.562 69.5608 12.25 68.9728C11.95 68.3848 11.542 67.8868 11.026 67.4788C10.522 67.0828 9.952 66.7828 9.316 66.5788C8.692 66.3748 8.056 66.2728 7.408 66.2728C6.7 66.2728 6.022 66.3928 5.374 66.6328C4.726 66.8728 4.15 67.2088 3.646 67.6408C3.154 68.0728 2.758 68.5768 2.458 69.1528C2.17 69.7408 2.026 70.3768 2.026 71.0608C2.026 71.5408 2.11 72.0328 2.278 72.5368C2.446 73.0408 2.704 73.5088 3.052 73.9408C3.4 74.3848 3.85 74.7388 4.402 75.0028L3.862 76.0468C3.226 75.7828 2.686 75.3748 2.242 74.8228C1.798 74.2708 1.462 73.6528 1.234 72.9688C1.006 72.2968 0.891997 71.6368 0.891997 70.9888C0.891997 70.1128 1.078 69.3088 1.45 68.5768C1.834 67.8448 2.338 67.2088 2.962 66.6688C3.598 66.1408 4.306 65.7328 5.086 65.4448C5.878 65.1568 6.676 65.0128 7.48 65.0128ZM0.999997 78.1987L13.78 78.1987L13.78 79.4587L2.116 79.4587L2.116 86.8387L0.999996 86.8387L0.999997 78.1987ZM0.909996 93.3311C0.909996 92.4311 1.09 91.6151 1.45 90.8831C1.81 90.1511 2.296 89.5211 2.908 88.9931C3.532 88.4651 4.228 88.0571 4.996 87.7691C5.776 87.4811 6.574 87.3371 7.39 87.3371C8.242 87.3371 9.052 87.4871 9.82 87.7871C10.6 88.0871 11.29 88.5071 11.89 89.0471C12.502 89.5991 12.982 90.2411 13.33 90.9731C13.69 91.7051 13.87 92.4971 13.87 93.3491C13.87 94.2491 13.684 95.0651 13.312 95.7971C12.94 96.5291 12.442 97.1531 11.818 97.6691C11.194 98.1971 10.498 98.6051 9.73 98.8931C8.962 99.1811 8.176 99.3251 7.372 99.3251C6.52 99.3251 5.704 99.1751 4.924 98.8751C4.156 98.5751 3.466 98.1551 2.854 97.6151C2.254 97.0751 1.78 96.4391 1.432 95.7071C1.084 94.9751 0.909996 94.1831 0.909996 93.3311ZM7.39 88.5971C6.694 88.5971 6.022 88.7111 5.374 88.9391C4.738 89.1671 4.168 89.4911 3.664 89.9111C3.172 90.3311 2.776 90.8291 2.476 91.4051C2.188 91.9931 2.044 92.6351 2.044 93.3311C2.044 94.0631 2.194 94.7171 2.494 95.2931C2.806 95.8811 3.214 96.3791 3.718 96.7871C4.234 97.2071 4.81 97.5251 5.446 97.7411C6.082 97.9571 6.73 98.0651 7.39 98.0651C8.086 98.0651 8.752 97.9511 9.388 97.7231C10.024 97.4951 10.594 97.1651 11.098 96.7331C11.602 96.3131 11.998 95.8151 12.286 95.2391C12.574 94.6631 12.718 94.0271 12.718 93.3311C12.718 92.6111 12.568 91.9571 12.268 91.3691C11.968 90.7931 11.56 90.2951 11.044 89.8751C10.54 89.4671 9.97 89.1491 9.334 88.9211C8.698 88.7051 8.05 88.5971 7.39 88.5971ZM0.909995 106.903C0.909995 105.895 1.09 105.043 1.45 104.347C1.81 103.651 2.29 103.099 2.89 102.691C3.502 102.283 4.192 101.983 4.96 101.791C5.728 101.611 6.52 101.521 7.336 101.521L13.78 101.521L13.78 102.763L7.336 102.763C6.676 102.763 6.028 102.829 5.392 102.961C4.756 103.105 4.186 103.333 3.682 103.645C3.178 103.957 2.776 104.377 2.476 104.905C2.188 105.433 2.044 106.093 2.044 106.885C2.044 107.701 2.194 108.373 2.494 108.901C2.806 109.441 3.214 109.861 3.718 110.161C4.222 110.473 4.786 110.695 5.41 110.827C6.046 110.959 6.688 111.025 7.336 111.025L13.78 111.025L13.78 112.285L7.336 112.285C6.484 112.285 5.668 112.189 4.888 111.997C4.108 111.805 3.424 111.493 2.836 111.061C2.248 110.641 1.78 110.089 1.432 109.405C1.084 108.721 0.909995 107.887 0.909995 106.903ZM0.999995 115.289L13.78 115.289L13.78 119.627C13.78 120.983 13.492 122.111 12.916 123.011C12.352 123.923 11.584 124.607 10.612 125.063C9.652 125.519 8.58399 125.747 7.40799 125.747C6.11199 125.747 4.98399 125.495 4.02399 124.991C3.06399 124.499 2.31999 123.791 1.79199 122.867C1.26399 121.955 0.999995 120.875 0.999995 119.627L0.999995 115.289ZM7.40799 124.487C8.42799 124.487 9.33399 124.295 10.126 123.911C10.918 123.539 11.536 122.993 11.98 122.273C12.436 121.553 12.664 120.671 12.664 119.627L12.664 116.549L2.11599 116.549L2.11599 119.627C2.11599 120.683 2.34999 121.571 2.81799 122.291C3.28599 123.011 3.91599 123.557 4.70799 123.929C5.51199 124.301 6.41199 124.487 7.40799 124.487Z" fill="#060F5E"/>
</svg>
