<svg width="14" height="16" viewBox="0 0 14 16" fill="none" xmlns="http://www.w3.org/2000/svg">
<path d="M1 0.927195L13.78 0.927195L13.78 2.1872L1 2.18719L1 0.927195ZM0.909999 10.522C0.91 9.67004 1.09 8.87804 1.45 8.14604C1.822 7.41404 2.32 6.77804 2.944 6.23804C3.568 5.69804 4.264 5.27804 5.032 4.97804C5.8 4.69004 6.592 4.54604 7.408 4.54604C8.272 4.54604 9.088 4.69004 9.856 4.97804C10.636 5.27804 11.326 5.69204 11.926 6.22004C12.526 6.74804 13 7.37204 13.348 8.09204C13.696 8.81204 13.87 9.59804 13.87 10.45C13.87 11.71 13.612 12.736 13.096 13.528C12.58 14.32 11.908 14.92 11.08 15.328L10.432 14.356C11.224 13.948 11.806 13.402 12.178 12.718C12.55 12.034 12.736 11.272 12.736 10.432C12.736 9.72404 12.586 9.08204 12.286 8.50604C11.986 7.94204 11.584 7.45604 11.08 7.04804C10.576 6.64004 10.006 6.32804 9.37 6.11204C8.734 5.90804 8.074 5.80604 7.39 5.80604C6.67 5.80604 5.986 5.92604 5.338 6.16604C4.702 6.40604 4.132 6.74804 3.628 7.19204C3.136 7.63604 2.746 8.14604 2.458 8.72204C2.182 9.31004 2.044 9.94004 2.044 10.612C2.044 11.392 2.236 12.13 2.62 12.826C3.016 13.522 3.622 14.188 4.438 14.824L3.106 14.824C1.642 13.612 0.909999 12.178 0.909999 10.522ZM6.31 14.626L6.31 11.782L7.282 11.782L7.282 15.688L0.999999 15.688L0.999999 14.626L6.31 14.626Z" fill="#060F5E"/>
</svg>
